<?xml version="1.0" encoding="UTF-8"?>
<svg width="64" height="64" viewBox="0 0 64 64" xmlns="http://www.w3.org/2000/svg">
  <defs>
    <linearGradient id="gradient" x1="0%" y1="0%" x2="100%" y2="100%">
      <stop offset="0%" style="stop-color:#0082C9"/>
      <stop offset="100%" style="stop-color:#005DAB"/>
    </linearGradient>
  </defs>
  
  <!-- Background -->
  <rect width="64" height="64" rx="8" fill="url(#gradient)"/>
  
  <!-- Deck/Board representation -->
  <g transform="translate(8, 12)">
    <!-- First column -->
    <rect x="2" y="4" width="14" height="36" rx="2" fill="white" opacity="0.9"/>
    <rect x="4" y="8" width="10" height="6" rx="1" fill="#0082C9"/>
    <rect x="4" y="16" width="10" height="4" rx="1" fill="#0082C9"/>
    <rect x="4" y="22" width="10" height="4" rx="1" fill="#0082C9"/>
    
    <!-- Second column -->
    <rect x="18" y="4" width="14" height="36" rx="2" fill="white" opacity="0.9"/>
    <rect x="20" y="8" width="10" height="4" rx="1" fill="#00D484"/>
    <rect x="20" y="14" width="10" height="6" rx="1" fill="#00D484"/>
    <rect x="20" y="22" width="10" height="4" rx="1" fill="#00D484"/>
    
    <!-- Third column -->
    <rect x="34" y="4" width="14" height="36" rx="2" fill="white" opacity="0.9"/>
    <rect x="36" y="8" width="10" height="4" rx="1" fill="#ED6A5A"/>
    <rect x="36" y="14" width="10" height="4" rx="1" fill="#ED6A5A"/>
  </g>
</svg>